<svg width="67" height="67" viewBox="0 0 67 67" fill="none" xmlns="http://www.w3.org/2000/svg">
<path d="M33.5006 0.583374C15.3636 0.583374 0.583984 15.363 0.583984 33.5C0.583984 51.6371 15.3636 66.4167 33.5006 66.4167C51.6377 66.4167 66.4173 51.6371 66.4173 33.5C66.4173 15.363 51.6377 0.583374 33.5006 0.583374ZM46.8648 39.3921C46.3711 39.8859 45.7456 40.1163 45.1202 40.1163C44.4948 40.1163 43.8694 39.8859 43.3756 39.3921L33.5006 29.5171L23.6257 39.3921C22.6711 40.3467 21.0911 40.3467 20.1365 39.3921C19.1819 38.4375 19.1819 36.8575 20.1365 35.903L31.7561 24.2834C32.7107 23.3288 34.2906 23.3288 35.2452 24.2834L46.8648 35.903C47.8194 36.8905 47.8194 38.4375 46.8648 39.3921Z" fill="#01F9C0"/>
</svg>
